{
  "accessors": [
    {
      "bufferView": 2,
      "componentType": 5126,
      "count": 734,
      "max": [
        0.48467299342155457,
        -0.7426810264587402,
        0.9966639876365662
      ],
      "min": [
        -0.48467299342155457,
        -1.0,
        -0.9165430068969727
      ],
      "type": "VEC3"
    },
    {
      "bufferView": 2,
      "byteOffset": 8808,
      "componentType": 5126,
      "count": 734,
      "max": [
        1.0,
        1.0,
        1.0
      ],
      "min": [
        -1.0,
        -1.0,
        -1.0
      ],
      "type": "VEC3"
    },
    {
      "bufferView": 3,
      "componentType": 5126,
      "count": 734,
      "max": [
        1.0,
        0.9419138431549072,
        1.0,
        1.0
      ],
      "min": [
        -1.0,
        -0.993958055973053,
        -1.0,
        -1.0
      ],
      "type": "VEC4"
    },
    {
      "bufferView": 1,
      "componentType": 5126,
      "count": 734,
      "max": [
        0.9912179708480835,
        1.0022499561309814
      ],
      "min": [
        0.0663904994726181,
        0.005641710013151169
      ],
      "type": "VEC2"
    },
    {
      "bufferView": 0,
      "componentType": 5125,
      "count": 2562,
      "type": "SCALAR"
    },
    {
      "bufferView": 2,
      "byteOffset": 17616,
      "componentType": 5126,
      "count": 493,
      "max": [
        0.48467299342155457,
        1.0,
        -0.7649949789047241
      ],
      "min": [
        -0.48467299342155457,
        -0.8935059905052185,
        -0.9966639876365662
      ],
      "type": "VEC3"
    },
    {
      "bufferView": 2,
      "byteOffset": 23532,
      "componentType": 5126,
      "count": 493,
      "max": [
        1.0,
        1.0,
        1.0
      ],
      "min": [
        -1.0,
        -1.0,
        -1.0
      ],
      "type": "VEC3"
    },
    {
      "bufferView": 3,
      "byteOffset": 11744,
      "componentType": 5126,
      "count": 493,
      "max": [
        1.0,
        1.0,
        1.0,
        1.0
      ],
      "min": [
        -1.0,
        -1.0,
        -0.9769463539123535,
        -1.0
      ],
      "type": "VEC4"
    },
    {
      "bufferView": 1,
      "byteOffset": 5872,
      "componentType": 5126,
      "count": 493,
      "max": [
        0.9050379991531372,
        0.9999759793281555
      ],
      "min": [
        2.4393899366259575e-05,
        2.4393899366259575e-05
      ],
      "type": "VEC2"
    },
    {
      "bufferView": 0,
      "byteOffset": 10248,
      "componentType": 5125,
      "count": 1956,
      "type": "SCALAR"
    }
  ],
  "asset": {
    "extras": {
      "author": "Daniel_litt (https://sketchfab.com/Daniel_litt)",
      "license": "CC-BY-4.0 (http://creativecommons.org/licenses/by/4.0/)",
      "source": "https://sketchfab.com/3d-models/flip-phone-7772aca6cc7545dcb47c03b2ceac675f",
      "title": "Flip Phone"
    },
    "generator": "Sketchfab-12.68.0",
    "version": "2.0"
  },
  "bufferViews": [
    {
      "buffer": 0,
      "byteLength": 18072,
      "name": "floatBufferViews",
      "target": 34963
    },
    {
      "buffer": 0,
      "byteLength": 9816,
      "byteOffset": 18072,
      "byteStride": 8,
      "name": "floatBufferViews",
      "target": 34962
    },
    {
      "buffer": 0,
      "byteLength": 29448,
      "byteOffset": 27888,
      "byteStride": 12,
      "name": "floatBufferViews",
      "target": 34962
    },
    {
      "buffer": 0,
      "byteLength": 19632,
      "byteOffset": 57336,
      "byteStride": 16,
      "name": "floatBufferViews",
      "target": 34962
    }
  ],
  "buffers": [
    {
      "byteLength": 76968,
      "uri": "scene.bin"
    }
  ],
  "images": [
    {
      "uri": "textures/phone_baseColor.jpeg"
    },
    {
      "uri": "textures/phone_metallicRoughness.png"
    },
    {
      "uri": "textures/phone_normal.png"
    }
  ],
  "materials": [
    {
      "name": "phone",
      "normalTexture": {
        "index": 2
      },
      "occlusionTexture": {
        "index": 1
      },
      "pbrMetallicRoughness": {
        "baseColorTexture": {
          "index": 0
        },
        "metallicRoughnessTexture": {
          "index": 1
        }
      }
    }
  ],
  "meshes": [
    {
      "name": "defaultMaterial",
      "primitives": [
        {
          "attributes": {
            "NORMAL": 1,
            "POSITION": 0,
            "TANGENT": 2,
            "TEXCOORD_0": 3
          },
          "indices": 4,
          "material": 0,
          "mode": 4
        }
      ]
    },
    {
      "name": "defaultMaterial",
      "primitives": [
        {
          "attributes": {
            "NORMAL": 6,
            "POSITION": 5,
            "TANGENT": 7,
            "TEXCOORD_0": 8
          },
          "indices": 9,
          "material": 0,
          "mode": 4
        }
      ]
    }
  ],
  "nodes": [
    {
      "children": [
        1
      ],
      "matrix": [
        0.8469864726066589,
        0.0,
        0.0,
        0.0,
        0.0,
        1.8806877668679144e-16,
        -0.8469864726066589,
        0.0,
        0.0,
        0.8469864726066589,
        1.8806877668679144e-16,
        0.0,
        0.0,
        0.0,
        0.0,
        1.0
      ],
      "name": "Sketchfab_model"
    },
    {
      "children": [
        2,
        4
      ],
      "matrix": [
        1.0,
        0.0,
        0.0,
        0.0,
        0.0,
        -4.371139006309477e-08,
        0.999999999999999,
        0.0,
        0.0,
        -0.999999999999999,
        -4.371139006309477e-08,
        0.0,
        0.0,
        0.0,
        0.0,
        1.0
      ],
      "name": "Collada visual scene group"
    },
    {
      "children": [
        3
      ],
      "name": "phone"
    },
    {
      "mesh": 0,
      "name": "defaultMaterial"
    },
    {
      "children": [
        5
      ],
      "name": "phone"
    },
    {
      "mesh": 1,
      "name": "defaultMaterial"
    }
  ],
  "samplers": [
    {
      "magFilter": 9729,
      "minFilter": 9987,
      "wrapS": 10497,
      "wrapT": 10497
    }
  ],
  "scene": 0,
  "scenes": [
    {
      "name": "Sketchfab_Scene",
      "nodes": [
        0
      ]
    }
  ],
  "textures": [
    {
      "sampler": 0,
      "source": 0
    },
    {
      "sampler": 0,
      "source": 1
    },
    {
      "sampler": 0,
      "source": 2
    }
  ]
}
